<?xml version="1.0" encoding="utf-8"?>
<svg width="24px" height="24px" viewBox="0 0 24 24" version="1.1" xmlns:xlink="http://www.w3.org/1999/xlink" xmlns="http://www.w3.org/2000/svg">
  <desc>Created with Lunacy</desc>
  <g id="icons/facebook-dark">
    <path d="M0 9.05503C0 13.5747 3.29117 17.3207 7.59375 18L7.59375 11.6725L5.30859 11.6725L5.30859 9.05503L7.59375 9.05503L7.59375 7.06009C7.59375 4.79068 8.93739 3.53712 10.9932 3.53712C11.9779 3.53712 13.0078 3.71398 13.0078 3.71398L13.0078 5.94236L11.8729 5.94236C10.7549 5.94236 10.4063 6.64036 10.4063 7.35645L10.4063 9.05503L12.9023 9.05503L12.5033 11.6725L10.4063 11.6725L10.4063 18C14.7088 17.3207 18 13.5747 18 9.05503C18 4.05407 13.9706 0 9 0C4.02943 0 0 4.05407 0 9.05503Z" transform="translate(3 3)" id="Fill-1" fill="#FFFFFF" stroke="none" />
  </g>
</svg>