<?xml version="1.0" encoding="utf-8"?>
<svg width="29px" height="29px" viewBox="0 0 29 29" version="1.1" xmlns:xlink="http://www.w3.org/1999/xlink" xmlns="http://www.w3.org/2000/svg">
  <desc>Created with Lunacy</desc>
  <defs>
    <path d="M0 0L16.9113 0L16.9113 16.8778L0 16.8778L0 0Z" transform="translate(1.678241E-05 0.005329587)" id="path_1" />
    <clipPath id="mask_1">
      <use xlink:href="#path_1" />
    </clipPath>
  </defs>
  <g id="icons/instagram-dark">
    <g id="Group-8" transform="translate(6.041667 6.041667)">
      <g id="Group-3" transform="translate(0 0.02817211)">
        <path d="M0 0L16.9113 0L16.9113 16.8778L0 16.8778L0 0Z" transform="translate(1.678241E-05 0.005329587)" id="Clip-2" fill="none" stroke="none" />
        <g clip-path="url(#mask_1)">
          <path d="M8.45565 0C6.15924 0 5.87126 0.00971452 4.9694 0.0507835C4.06936 0.091752 3.45473 0.234421 2.91685 0.443049C2.36085 0.658678 1.88926 0.947233 1.41919 1.41638C0.949079 1.88556 0.659985 2.35617 0.443895 2.91107C0.234853 3.44788 0.091934 4.06131 0.0508507 4.95956C0.00970023 5.85967 0 6.14701 0 8.4389C0 10.7308 0.00970023 11.0182 0.0508507 11.9183C0.091934 12.8165 0.234853 13.43 0.443895 13.9667C0.659985 14.5216 0.949079 14.9923 1.41919 15.4614C1.88926 15.9306 2.36085 16.2191 2.91685 16.4348C3.45473 16.6434 4.06936 16.7861 4.9694 16.8271C5.87126 16.8681 6.15924 16.8778 8.45565 16.8778C10.7521 16.8778 11.04 16.8681 11.9419 16.8271C12.8419 16.7861 13.4566 16.6434 13.9944 16.4348C14.5505 16.2191 15.022 15.9306 15.4921 15.4614C15.9622 14.9923 16.2513 14.5217 16.4674 13.9667C16.6764 13.43 16.8194 12.8165 16.8604 11.9183C16.9016 11.0182 16.9113 10.7308 16.9113 8.4389C16.9113 6.14705 16.9016 5.85967 16.8604 4.95956C16.8194 4.06131 16.6764 3.44788 16.4674 2.91107C16.2513 2.35617 15.9622 1.88556 15.4921 1.41638C15.022 0.947233 14.5505 0.658678 13.9944 0.443049C13.4566 0.234421 12.8419 0.091752 11.9419 0.0507835C11.04 0.00971452 10.7521 0 8.45565 0M8.45565 1.52052C10.7134 1.52052 10.9808 1.5291 11.8724 1.5697C12.6969 1.60725 13.1446 1.74473 13.4425 1.8603C13.8372 2.01338 14.1189 2.19625 14.4148 2.49154C14.7107 2.78686 14.8939 3.06798 15.0473 3.46189C15.1631 3.75925 15.3009 4.20609 15.3385 5.02887C15.3791 5.91872 15.3878 6.18564 15.3878 8.4389C15.3878 10.6922 15.3791 10.9591 15.3385 11.8489C15.3009 12.6718 15.1631 13.1186 15.0473 13.416C14.8939 13.8098 14.7107 14.091 14.4148 14.3863C14.1189 14.6816 13.8372 14.8645 13.4425 15.0175C13.1446 15.1331 12.6969 15.2706 11.8724 15.3081C10.981 15.3487 10.7136 15.3573 8.45565 15.3573C6.19771 15.3573 5.93033 15.3487 5.03885 15.3081C4.21443 15.2706 3.76668 15.1331 3.46872 15.0175C3.07407 14.8645 2.79236 14.6816 2.49648 14.3863C2.20061 14.091 2.01735 13.8098 1.86395 13.416C1.74819 13.1186 1.61044 12.6718 1.57281 11.849C1.53213 10.9591 1.52354 10.6922 1.52354 8.4389C1.52354 6.18564 1.53213 5.91872 1.57281 5.02887C1.61044 4.20609 1.74819 3.75925 1.86395 3.46189C2.01735 3.06798 2.20061 2.78686 2.49648 2.49157C2.79236 2.19625 3.07407 2.01338 3.46872 1.8603C3.76668 1.74473 4.21443 1.60725 5.03882 1.5697C5.93047 1.5291 6.19788 1.52052 8.45565 1.52052" transform="translate(1.678241E-05 0.005329587)" id="Fill-1" fill="#FFFFFF" stroke="none" />
        </g>
      </g>
      <path d="M4.34211 7.14647C2.78548 7.14647 1.52354 5.88703 1.52354 4.33348C1.52354 2.77993 2.78548 1.52052 4.34211 1.52052C5.89875 1.52052 7.16068 2.77993 7.16068 4.33348C7.16068 5.88703 5.89875 7.14647 4.34211 7.14647M4.34211 0C1.94404 0 0 1.94016 0 4.33348C0 6.72684 1.94404 8.66699 4.34211 8.66699C6.74018 8.66699 8.68419 6.72684 8.68419 4.33348C8.68419 1.94016 6.74018 0 4.34211 0" transform="translate(4.113552 4.138925)" id="Fill-4" fill="#FFFFFF" stroke="none" />
      <path d="M2.02936 1.01265C2.02936 1.57194 1.5751 2.02531 1.0147 2.02531C0.4543 2.02531 0 1.57194 0 1.01265C0 0.453367 0.4543 0 1.0147 0C1.5751 0 2.02936 0.453367 2.02936 1.01265" transform="translate(11.95463 2.955053)" id="Fill-6" fill="#FFFFFF" stroke="none" />
    </g>
  </g>
</svg>