<?xml version="1.0" encoding="utf-8"?>
<svg width="150px" height="35px" viewBox="0 0 150 35" version="1.1" xmlns:xlink="http://www.w3.org/1999/xlink" xmlns="http://www.w3.org/2000/svg">
  <desc>Created with Lunacy</desc>
  <g id="logos/itf-logo-web-2-colour-horizontal-01">
    <g id="logos/itf-logo-web-2-colour-horizontal-01">
      <path d="M6.3966 8.30114C4.65836 7.53168 2.96995 6.60992 1.276 6.60992C0.845533 6.59493 0.415223 6.64358 0 6.7542C0.113407 4.76239 1.03287 2.8933 2.5603 1.54962C3.70344 0.526336 4.94899 0 6.20008 0C7.37899 0.0181564 8.54471 0.242658 9.64057 0.662595C12.6354 1.8729 14.0194 3.68702 14.0194 5.45572C14.0207 5.69111 14.0012 5.92618 13.9613 6.1584C13.6679 7.77481 12.3227 9.33244 10.208 9.33244C8.96797 9.33244 8.1376 9.10801 6.3966 8.30114Z" transform="translate(61.82088 8.920992)" id="Path" fill="#FFDC00" stroke="none" />
      <path d="M8.24832 16.5595C12.8513 16.5595 16.671 12.787 16.671 8.2771C16.671 5.84046 15.7244 3.86336 14.1052 2.42061C12.4066 0.936528 10.2196 0.0792355 7.93001 0C7.5281 0.000480582 7.12798 0.0516778 6.73982 0.15229C6.60696 0.189695 6.52946 0.256489 6.52946 0.339313C6.52946 0.422137 6.6208 0.515649 6.95848 0.534351C9.44959 0.667939 12.1732 1.77405 13.7398 3.32366C15.085 4.65954 15.4365 6.07023 15.3867 7.06412C15.2649 9.68244 13.297 11.5286 10.5457 11.5286C9.43852 11.5286 8.25939 11.1439 7.25465 10.6924C5.15382 9.74122 3.36576 8.38931 1.18466 8.38931C0.204824 8.38931 0 8.70191 0 9.11603C0 10.6897 0.871886 12.6855 2.4911 14.2164C4.01159 15.7046 6.08301 16.5476 8.24832 16.5595Z" transform="translate(61.80428 7.844275)" id="Path" fill="#FFDC00" stroke="none" />
      <path d="M59.6023 10.5539C41.2982 0.42791 26.2934 -2.4282 15.0115 2.05768C3.33654 6.70119 0.0455162 17.813 0.0150694 17.9252C-0.044242 18.1383 0.0763631 18.3595 0.291859 18.4329C0.498276 18.5048 0.727979 18.418 0.82883 18.2298C3.98423 12.1997 8.99411 8.07715 15.7146 5.98249C21.123 4.29394 27.6525 3.89852 35.1175 4.80959C47.8802 6.36455 59.0847 11.2592 59.1982 11.31C59.414 11.4141 59.6765 11.331 59.7866 11.1237C59.8967 10.9164 59.8132 10.6622 59.5995 10.5539L59.6023 10.5539Z" transform="translate(0.001537965 0.2052965)" id="Path" fill="#008E70" stroke="none" />
      <path d="M0 21.0401L0 1.21031C0 0.317939 0.570186 0 1.35904 0L5.77106 0L5.77106 16.8668C5.77644 17.3173 5.71967 17.7666 5.60221 18.2027C5.09846 19.9366 3.46817 21.0401 0.860815 21.0401L0 21.0401Z" transform="translate(7.542507 13.95992)" id="Path" fill="#008E70" stroke="none" />
      <path d="M12.7157 3.92481L17.3408 3.92481C18.9435 3.92481 19.4887 3.54542 19.6963 2.77061L20.3385 0L2.4745 0C1.40332 0 0.907869 0.267176 0.691973 1.1729L0 3.92481L6.96402 3.92481L6.96402 21.0401L7.8193 21.0401C10.3713 21.0401 12.0874 20.0061 12.5773 18.1359C12.6809 17.7177 12.7311 17.2888 12.7268 16.8588L12.7157 3.92481Z" transform="translate(16.34717 13.95992)" id="Path" fill="#008E70" stroke="none" />
      <path d="M1.53618 0C0.370898 0 0 0.400763 0 1.33588L0 21.0401L0.863582 21.0401C3.70621 21.0401 5.26176 19.755 5.67141 17.9542C5.74446 17.5762 5.7806 17.1925 5.77936 16.808L5.77936 12.3542L9.4828 12.3542C10.7311 12.3542 11.3096 12.0389 11.6224 11.1492L12.4527 8.42672L5.7849 8.42672L5.7849 3.94084L12.0542 3.94084C13.5931 3.94084 14.0526 3.49733 14.3875 2.45267L15.1791 0.00267176L1.53618 0Z" transform="translate(39.60854 13.95992)" id="Path" fill="#008E70" stroke="none" />
      <path d="M0.789319 1.60358L0.339492 0.85014L0.198037 0.85014L0.198037 1.60358L0 1.60358L0 0.00052169L0.537529 0.00052169C0.664287 -0.00526915 0.788182 0.0373418 0.881311 0.118758C0.974439 0.200173 1.02897 0.313548 1.03262 0.433346C1.03505 0.547397 0.987556 0.657344 0.901344 0.737244C0.815131 0.817145 0.697837 0.859922 0.577136 0.855484L1.03262 1.60358L0.789319 1.60358ZM0.506409 0.128766L0.192379 0.128766L0.192379 0.724568L0.506409 0.724568C0.589628 0.727522 0.67046 0.69797 0.729878 0.642867C0.789297 0.587764 0.822054 0.511977 0.820439 0.433346C0.822081 0.269658 0.685295 0.134553 0.512067 0.128766L0.506409 0.128766Z" transform="translate(58.22262 14.26131)" id="Shape" fill="#008F70" stroke="none" />
      <path d="M1.26216 2.43664C0.565088 2.43664 0 1.89118 0 1.21832C0 0.545461 0.565088 0 1.26216 0C1.95923 0 2.52432 0.545461 2.52432 1.21832C2.52432 1.89118 1.95923 2.43664 1.26216 2.43664L1.26216 2.43664ZM1.26216 0.189695C0.829777 0.189696 0.440024 0.441254 0.274818 0.826951C0.109613 1.21265 0.201529 1.65644 0.507666 1.95118C0.813802 2.24591 1.2738 2.33349 1.67294 2.17302C2.07209 2.01255 2.33169 1.63568 2.33057 1.21832C2.32752 0.650838 1.85007 0.192359 1.26216 0.192366L1.26216 0.189695Z" transform="translate(57.39779 13.86107)" id="Shape" fill="#008F70" stroke="none" />
      <path d="M1.54449 7.96985L0 7.96985L0 0L1.54449 0L1.54449 7.96985Z" transform="translate(84.26019 0.2217557)" id="Path" fill="#008E70" stroke="none" />
      <path d="M0 5.73655L0 0.0804466L0.863582 0.0804466C1.02956 0.0698391 1.1802 0.173862 1.22341 0.32892L1.32028 0.775103C1.43478 0.658592 1.55983 0.552189 1.69395 0.457164C1.82561 0.363787 1.96654 0.28324 2.11467 0.216706C2.26551 0.145835 2.42433 0.0920424 2.58798 0.0564008C2.76964 0.0171538 2.95541 -0.00167361 3.14156 0.000293969C3.43305 -0.00449106 3.7224 0.0491859 3.9913 0.157928C4.22806 0.25437 4.4384 0.402531 4.60577 0.590752C4.77677 0.790535 4.90475 1.02125 4.9822 1.26938C5.07129 1.5507 5.11517 1.84354 5.11229 2.1377L5.11229 5.73655L3.70067 5.73655L3.70067 2.1377C3.7195 1.85038 3.63113 1.56604 3.45156 1.33617C3.26223 1.13527 2.98755 1.02981 2.707 1.05029C2.46809 1.04908 2.23247 1.1041 2.02056 1.2106C1.79755 1.32515 1.59406 1.47202 1.41716 1.6461L1.41716 5.73655L0 5.73655Z" transform="translate(87.56505 2.45505)" id="Path" fill="#008E70" stroke="none" />
      <path d="M2.45884 7.47043C2.02571 7.49669 1.60102 7.34647 1.28802 7.05631C0.998895 6.73982 0.850707 6.32606 0.8756 5.90478L0.8756 2.74409L0.283271 2.74409C0.209536 2.74665 0.137796 2.72068 0.0839823 2.67195C0.0245775 2.61628 -0.00588779 2.53786 0.000945426 2.45821L0.000945426 1.92386L0.944798 1.77692L1.24096 0.232642C1.25192 0.164704 1.28959 0.10346 1.34614 0.0616494C1.4073 0.0192812 1.48127 -0.0023288 1.5565 0.000199033L2.28723 0.000199033L2.28723 1.77424L3.82894 1.77424L3.82894 2.74409L2.28723 2.74409L2.28723 5.8086C2.27739 5.95813 2.32576 6.10582 2.42285 6.22272C2.5156 6.32246 2.64946 6.37728 2.78822 6.37234C2.8634 6.37425 2.93835 6.3634 3.00965 6.34028C3.06204 6.32383 3.11296 6.30328 3.16188 6.27882L3.2809 6.2147C3.31124 6.19527 3.3469 6.18504 3.38331 6.18531C3.42004 6.1826 3.45651 6.19306 3.48573 6.2147C3.51897 6.24057 3.5479 6.27121 3.57153 6.30554L3.99502 6.96814C3.78437 7.13339 3.54424 7.26015 3.28644 7.34218C3.01924 7.42653 2.73996 7.46981 2.45884 7.47043Z" transform="translate(93.52615 0.8120147)" id="Path" fill="#008E70" stroke="none" />
      <path d="M2.79624 0.000119694C3.14455 -0.00236529 3.49049 0.0555515 3.81759 0.171112C4.11839 0.280107 4.39125 0.450532 4.61751 0.67073C4.85018 0.898523 5.02952 1.17185 5.14341 1.47226C5.27534 1.82128 5.33916 2.19087 5.33163 2.56233C5.33401 2.6516 5.32938 2.74092 5.31779 2.82951C5.31289 2.8857 5.29592 2.9403 5.26796 2.98981C5.24447 3.02612 5.20955 3.05421 5.16832 3.06997C5.11728 3.08945 5.06263 3.09854 5.00778 3.09668L1.38461 3.09668C1.38287 3.56504 1.55579 4.01835 1.87176 4.37378C2.16756 4.65016 2.56754 4.79784 2.97892 4.78256C3.17938 4.78736 3.37934 4.7612 3.57125 4.70508C3.73001 4.65981 3.88388 4.59987 4.03072 4.52607C4.1525 4.46462 4.26322 4.40852 4.35456 4.35508C4.43812 4.30612 4.53362 4.27939 4.63135 4.2776C4.68339 4.27699 4.73476 4.28893 4.78082 4.31233C4.8236 4.3353 4.8605 4.36726 4.88876 4.40585L5.30118 4.90279C5.149 5.07438 4.97186 5.22377 4.77528 5.3463C4.58376 5.46283 4.37955 5.5587 4.16634 5.63218C3.95727 5.7039 3.74119 5.75493 3.52142 5.78447C3.31049 5.81287 3.09778 5.82715 2.88481 5.82722C2.49636 5.83084 2.1106 5.7647 1.74721 5.63218C1.40305 5.50465 1.09148 5.30689 0.833801 5.05241C0.564544 4.78019 0.356309 4.45731 0.222096 4.10394C0.0670772 3.68402 -0.00794184 3.24048 0.000664838 2.79478C-0.0024135 2.42406 0.0632032 2.0558 0.194417 1.70737C0.316462 1.37932 0.504608 1.07784 0.747996 0.820349C0.996675 0.563313 1.2984 0.35944 1.63372 0.221875C2.00145 0.0720415 2.3971 -0.00343077 2.79624 0.000119694L2.79624 0.000119694ZM2.82668 0.975311C2.47053 0.955212 2.1214 1.07688 1.86069 1.31195C1.60895 1.57485 1.45255 1.9096 1.41506 2.26577L4.06393 2.26577C4.06516 2.09743 4.03996 1.92988 3.9892 1.76882C3.9446 1.6177 3.86724 1.47745 3.76223 1.35737C3.65553 1.24131 3.52307 1.14998 3.37473 1.0902C3.20279 1.01414 3.01582 0.974945 2.82668 0.975311L2.82668 0.975311Z" transform="translate(98.10452 2.447209)" id="Shape" fill="#008E70" stroke="none" />
      <path d="M0 5.75848L0 0.102377L0.830368 0.102377C0.938204 0.092072 1.04628 0.119575 1.13484 0.179858C1.20194 0.254525 1.24181 0.348386 1.24832 0.447034L1.33413 1.131C1.51781 0.809662 1.7685 0.528558 2.07039 0.305431C2.34317 0.105222 2.6771 -0.0019075 3.01977 0.000850586C3.2745 -0.00845339 3.52594 0.0587584 3.73943 0.193217L3.55674 1.21383C3.55056 1.26825 3.52398 1.31861 3.48201 1.35543C3.43558 1.38327 3.38164 1.39722 3.32701 1.39551C3.24825 1.39191 3.17021 1.37936 3.09451 1.3581C2.96494 1.32817 2.83188 1.3147 2.6987 1.31803C2.42721 1.31057 2.16134 1.3936 1.94583 1.55314C1.71769 1.73721 1.53914 1.9719 1.42547 2.23711L1.42547 5.75848L0 5.75848Z" transform="translate(104.5848 2.433119)" id="Path" fill="#008E70" stroke="none" />
      <path d="M0 5.74457L0 0.0884619L0.863582 0.0884619C1.02957 0.0778544 1.18021 0.181877 1.22341 0.336935L1.32028 0.783118C1.43478 0.666607 1.55983 0.560204 1.69395 0.465179C1.82351 0.369325 1.96258 0.286094 2.10913 0.216706C2.2601 0.146139 2.41889 0.0923589 2.58244 0.0564008C2.76411 0.0171538 2.94987 -0.00167361 3.13602 0.000293969C3.42752 -0.00449106 3.71687 0.0491859 3.98577 0.157928C4.22536 0.255955 4.43774 0.406961 4.60577 0.598767C4.77661 0.799071 4.90541 1.02957 4.98497 1.27739C5.07313 1.55885 5.11607 1.85169 5.1123 2.14571L5.1123 5.74457L3.70067 5.74457L3.70067 2.14571C3.7195 1.85839 3.63113 1.57406 3.45156 1.34419C3.26223 1.14329 2.98755 1.03782 2.707 1.05831C2.46893 1.05677 2.23414 1.11183 2.02333 1.21861C1.79901 1.33242 1.59449 1.47936 1.41716 1.65411L1.41716 5.74457L0 5.74457Z" transform="translate(109.2515 2.447034)" id="Path" fill="#008E70" stroke="none" />
      <path d="M4.88304 5.75306L4.24919 5.75306C4.14183 5.75806 4.03475 5.73885 3.93642 5.69696C3.84925 5.64358 3.78755 5.55904 3.76481 5.46184L3.63749 5.05841C3.5005 5.18059 3.35533 5.29394 3.20293 5.39772C3.06386 5.49325 2.91555 5.57557 2.76006 5.64352C2.60386 5.71051 2.4405 5.76068 2.27292 5.79314C2.0849 5.82682 1.89395 5.84293 1.70273 5.84123C1.47017 5.84327 1.23866 5.81083 1.01629 5.74505C0.817629 5.68651 0.634445 5.58717 0.479321 5.45383C0.324955 5.32213 0.204584 5.15745 0.127799 4.97291C0.0382521 4.76108 -0.00509097 4.5337 0.000475674 4.30497C0.00324587 4.0832 0.063174 3.86559 0.174853 3.67177C0.315102 3.43869 0.515315 3.24451 0.75611 3.10803C1.09064 2.91389 1.45501 2.7723 1.83559 2.68856C2.38021 2.56885 2.93785 2.51323 3.49632 2.52291L3.49632 2.18894C3.5209 1.88695 3.43251 1.58647 3.24721 1.342C3.05996 1.15308 2.79489 1.05505 2.52479 1.07482C2.33162 1.07036 2.139 1.09654 1.95461 1.1523C1.81731 1.19804 1.68478 1.25619 1.5588 1.32597C1.44532 1.39009 1.3429 1.44887 1.24603 1.49963C1.15008 1.55262 1.041 1.57941 0.930488 1.57711C0.843362 1.57905 0.757922 1.55374 0.686913 1.50497C0.619113 1.45835 0.562477 1.39822 0.520839 1.32864L0.263425 0.893141C0.925818 0.302005 1.80003 -0.0179114 2.70194 0.000774842C3.01558 -0.0049707 3.3272 0.0504623 3.61811 0.163752C3.87706 0.264926 4.11028 0.418955 4.30178 0.615279C4.49543 0.812317 4.64438 1.04618 4.73911 1.30192C4.83796 1.58594 4.88662 1.88399 4.88304 2.1836L4.88304 5.75306ZM2.14282 4.90612C2.27681 4.90713 2.4105 4.89369 2.5414 4.86604C2.66115 4.84279 2.77739 4.80509 2.88739 4.75383C2.99806 4.70056 3.10365 4.63798 3.20293 4.56681C3.31066 4.48461 3.41239 4.39534 3.5074 4.29963L3.5074 3.3565C3.16253 3.35097 2.81786 3.37601 2.47774 3.43131C2.24735 3.46581 2.02292 3.53054 1.81068 3.62368C1.66927 3.68068 1.54606 3.77288 1.45362 3.89085C1.38384 3.99494 1.34815 4.1169 1.35121 4.24085C1.33037 4.43776 1.41359 4.63157 1.57264 4.7565C1.74121 4.86399 1.94107 4.91644 2.14282 4.90612L2.14282 4.90612Z" transform="translate(115.4539 2.438538)" id="Shape" fill="#008E70" stroke="none" />
      <path d="M2.45857 7.47037C2.02545 7.49663 1.60075 7.34642 1.28775 7.05625C0.996935 6.73951 0.847688 6.3246 0.872566 5.90205L0.872566 2.74404L0.277469 2.74404C0.200576 2.74422 0.12707 2.71352 0.0745675 2.65929C0.0220646 2.60506 -0.00470303 2.5322 0.000679711 2.45816L0.000679711 1.92381L0.941763 1.77686L1.2407 0.232587C1.25166 0.164649 1.28933 0.103405 1.34588 0.0615948C1.40618 0.0196096 1.47915 -0.00199099 1.55347 0.000144385L2.28419 0.000144385L2.28419 1.77419L3.82868 1.77419L3.82868 2.74404L2.28419 2.74404L2.28419 5.80854C2.2754 5.95839 2.32474 6.10602 2.42259 6.22266C2.51533 6.32241 2.64919 6.37722 2.78795 6.37228C2.86224 6.37439 2.93632 6.36353 3.00661 6.34022C3.05989 6.32375 3.11172 6.3032 3.16161 6.27877L3.27786 6.21465C3.3092 6.19515 3.34576 6.18494 3.38304 6.18526C3.41971 6.18303 3.45601 6.19345 3.48546 6.21465C3.51799 6.24124 3.54683 6.27177 3.57126 6.30549L3.99198 6.96808C3.78208 7.13441 3.54174 7.26129 3.2834 7.34213C3.01714 7.42642 2.73878 7.4697 2.45857 7.47037Z" transform="translate(121.1915 0.8120694)" id="Path" fill="#008E70" stroke="none" />
      <path d="M1.79 0.873666C1.79064 0.98806 1.76512 1.10118 1.71527 1.20496C1.66671 1.30458 1.60017 1.39505 1.51875 1.47214C1.43881 1.54927 1.34503 1.61173 1.24196 1.65649C1.12995 1.70255 1.00942 1.72618 0.887666 1.72596C0.768601 1.72615 0.65079 1.70249 0.54168 1.65649C0.438328 1.61221 0.344455 1.54969 0.26489 1.47214C0.184345 1.3955 0.119544 1.30485 0.0739058 1.20496C0.024914 1.101 0.000339186 0.987868 0.00194059 0.873666C-0.0064513 0.753619 0.0124422 0.633253 0.0572984 0.520994C0.10276 0.421012 0.167582 0.33033 0.248283 0.253818C0.327848 0.176266 0.421721 0.113743 0.525072 0.0694673C0.634183 0.0234645 0.751994 -0.000189113 0.871059 1.60641e-06C0.992809 -0.00022444 1.11334 0.0234079 1.22535 0.0694673C1.33826 0.111285 1.44167 0.173897 1.52982 0.253818C1.61137 0.330795 1.67794 0.421292 1.72634 0.520994C1.77403 0.632642 1.79576 0.753029 1.79 0.873666L1.79 0.873666ZM1.57964 2.52214L1.57964 8.17825L0.168014 8.17825L0.168014 2.52214L1.57964 2.52214Z" transform="translate(126.07 0.01335717)" id="Shape" fill="#008E70" stroke="none" />
      <path d="M2.91495 0.000574164C3.32163 -0.00455366 3.72558 0.06527 4.10515 0.206299C4.44863 0.33232 4.75943 0.529283 5.01578 0.783399C5.27486 1.04597 5.47384 1.3582 5.59981 1.69981C5.74074 2.08769 5.81007 2.49643 5.80463 2.90744C5.81009 3.3202 5.74077 3.7307 5.59981 4.12042C5.46936 4.46098 5.26774 4.77201 5.00748 5.03416C4.7526 5.29192 4.44155 5.49178 4.09684 5.61928C3.32723 5.89008 2.4833 5.89008 1.71369 5.61928C1.36787 5.49083 1.05522 5.29115 0.797516 5.03416C0.536904 4.77072 0.336104 4.45769 0.207955 4.11508C0.0645849 3.72588 -0.00571346 3.31513 0.000362768 2.9021C-0.00558783 2.49083 0.0647165 2.08184 0.207955 1.69447C0.334799 1.35204 0.535782 1.03963 0.797516 0.778055C1.05643 0.524417 1.36891 0.327587 1.71369 0.200956C2.09725 0.0609799 2.50497 -0.00703119 2.91495 0.000574164ZM2.91495 4.78034C3.33545 4.81012 3.74291 4.63208 3.9972 4.30744C4.25946 3.8902 4.3822 3.4051 4.34872 2.91813C4.38137 2.42954 4.25873 1.94297 3.9972 1.52347C3.7243 1.21717 3.32657 1.04097 2.90803 1.04097C2.4895 1.04097 2.09177 1.21717 1.81887 1.52347C1.55508 1.94118 1.43135 2.42732 1.46458 2.91546C1.42697 3.40171 1.54691 3.88723 1.8078 4.30477C2.06772 4.63635 2.48577 4.81592 2.91495 4.78034L2.91495 4.78034Z" transform="translate(128.8367 2.446754)" id="Shape" fill="#008E70" stroke="none" />
      <path d="M0 5.73655L0 0.0804446L0.860816 0.0804446C1.0268 0.0698372 1.17744 0.17386 1.22064 0.328918L1.31752 0.775101C1.43328 0.659863 1.55822 0.553558 1.69118 0.457162C1.82068 0.364907 1.95874 0.284412 2.1036 0.216704C2.25369 0.146327 2.41154 0.0925501 2.57414 0.0563988C2.75586 0.0174317 2.94159 -0.00139233 3.12772 0.000291978C3.42012 -0.00447581 3.71037 0.0491933 3.98024 0.157926C4.2166 0.25504 4.42679 0.403097 4.59471 0.59075C4.76468 0.791198 4.89254 1.0217 4.97114 1.26938C5.0593 1.55084 5.10224 1.84368 5.09847 2.1377L5.09847 5.73655L3.68961 5.73655L3.68961 2.1377C3.70843 1.85037 3.62006 1.56604 3.4405 1.33617C3.25045 1.13628 2.97629 1.03102 2.69593 1.05029C2.45702 1.04908 2.22141 1.1041 2.00949 1.2106C1.78603 1.32572 1.58171 1.47252 1.40332 1.64609L1.40332 5.73655L0 5.73655Z" transform="translate(135.7375 2.455051)" id="Path" fill="#008E70" stroke="none" />
      <path d="M4.88574 5.75309L4.25189 5.75309C4.14366 5.75773 4.03576 5.73854 3.93635 5.69698C3.85002 5.6433 3.78929 5.55874 3.76751 5.46187L3.65402 5.05843C3.51612 5.18067 3.37002 5.29402 3.2167 5.39774C3.078 5.49383 2.92963 5.57618 2.77383 5.64355C2.61859 5.71053 2.45614 5.76071 2.28945 5.79316C2.10058 5.82767 1.90872 5.84466 1.7165 5.84393C1.48392 5.84613 1.25239 5.81369 1.03006 5.74774C0.825401 5.6916 0.636285 5.59211 0.476483 5.45652C0.323012 5.32405 0.2028 5.15959 0.12496 4.97561C0.0376971 4.76321 -0.00465275 4.53611 0.000405089 4.30767C0.00317528 4.0859 0.0631034 3.86829 0.174782 3.67446C0.313143 3.44089 0.512627 3.24649 0.753272 3.11072C1.08805 2.91707 1.45234 2.77551 1.83275 2.69126C2.38193 2.57078 2.94424 2.51515 3.50732 2.52561L3.50732 2.18897C3.5319 1.88698 3.44352 1.58649 3.25821 1.34202C3.0703 1.15406 2.80571 1.05621 2.53579 1.07484C2.3417 1.07024 2.14815 1.09641 1.96284 1.15232C1.82576 1.19859 1.69328 1.25671 1.56703 1.32599C1.45355 1.39011 1.35114 1.44889 1.25426 1.49965C1.15918 1.5523 1.05109 1.57908 0.941489 1.57713C0.853504 1.57907 0.767183 1.5538 0.695146 1.505C0.628725 1.45689 0.572369 1.39706 0.529073 1.32866L0.274426 0.893164C0.936664 0.301786 1.81099 -0.0181696 2.71294 0.000797583C3.02658 -0.00494796 3.3382 0.050485 3.62911 0.163775C3.88736 0.26476 4.11972 0.418842 4.31001 0.615301C4.5016 0.812405 4.64781 1.04641 4.73904 1.30194C4.83883 1.58581 4.88842 1.88387 4.88574 2.18362L4.88574 5.75309ZM2.14552 4.90614C2.27951 4.90715 2.4132 4.89371 2.5441 4.86607C2.66385 4.84282 2.78009 4.80512 2.89008 4.75385C3.00025 4.70123 3.10498 4.6386 3.20286 4.56683C3.31151 4.48469 3.41416 4.39542 3.51009 4.29965L3.51009 3.35652C3.16431 3.35101 2.81873 3.37605 2.47767 3.43133C2.24803 3.46524 2.02443 3.52999 1.81337 3.6237C1.67106 3.67919 1.54747 3.77167 1.45632 3.89087C1.28104 4.16614 1.32829 4.52212 1.5698 4.74584C1.73866 4.85804 1.94069 4.91429 2.14552 4.90614L2.14552 4.90614Z" transform="translate(141.9371 2.438515)" id="Shape" fill="#008E70" stroke="none" />
      <path d="M1.41162 0L1.41162 8.1916L0 8.1916L0 0L1.41162 0Z" transform="translate(148.3009 0)" id="Path" fill="#008E70" stroke="none" />
      <path d="M6.52116 0L6.52116 1.21832L4.03005 1.21832L4.03005 7.97252L2.4911 7.97252L2.4911 1.21832L0 1.21832L0 0L6.52116 0Z" transform="translate(84.23528 13.45229)" id="Path" fill="#008E70" stroke="none" />
      <path d="M2.81554 0.000848064C3.16396 -0.00294023 3.51015 0.0550169 3.83689 0.17184C4.13808 0.278819 4.41119 0.448482 4.63682 0.668787C4.86949 0.896579 5.04882 1.16991 5.16271 1.47031C5.29307 1.81974 5.35684 2.18905 5.35093 2.56039C5.35349 2.64966 5.34886 2.73899 5.33709 2.82757C5.33269 2.88422 5.31468 2.9391 5.2845 2.98787C5.26249 3.02599 5.22718 3.05534 5.18486 3.0707C5.13429 3.08817 5.08077 3.09633 5.02709 3.09474L1.40392 3.09474C1.40669 3.55828 1.57925 4.00594 1.89107 4.35848C2.18715 4.63416 2.58719 4.78089 2.99822 4.76459C3.19846 4.76885 3.39819 4.74362 3.59055 4.68978C3.73963 4.64334 3.88489 4.58618 4.02511 4.51879L4.34895 4.3478C4.43212 4.29798 4.52787 4.27118 4.62574 4.27031C4.67755 4.26888 4.72891 4.2799 4.77521 4.30237C4.818 4.32534 4.85489 4.3573 4.88316 4.39589L5.30111 4.89283C5.14893 5.06442 4.97179 5.21381 4.77521 5.33634C4.58429 5.45392 4.37996 5.54985 4.16627 5.62222C3.9572 5.69395 3.74112 5.74497 3.52135 5.77451C3.31048 5.80376 3.09777 5.81894 2.88474 5.81993C2.4961 5.82295 2.11028 5.7559 1.74714 5.62222C1.40366 5.49466 1.09228 5.29793 0.833731 5.04512C0.565036 4.77248 0.356878 4.44972 0.222027 4.09665C0.0674791 3.67661 -0.0075259 3.23316 0.000595512 2.78749C-0.00269414 2.41588 0.0629239 2.04671 0.194348 1.69741C0.316392 1.36936 0.504538 1.06788 0.747927 0.81039C0.996821 0.553594 1.29849 0.349758 1.63365 0.211917C2.00817 0.0631366 2.41067 -0.00874495 2.81554 0.000848064ZM2.84322 0.976039C2.48791 0.95605 2.13969 1.07775 1.87999 1.31268C1.62826 1.57558 1.47186 1.91033 1.43436 2.2665L4.08324 2.2665C4.08624 2.09755 4.06291 1.92913 4.01404 1.76688C3.96944 1.61575 3.89208 1.4755 3.78707 1.35543C3.68037 1.23936 3.54791 1.14804 3.39957 1.08825C3.22439 1.01342 3.03479 0.975176 2.84322 0.976039L2.84322 0.976039Z" transform="translate(90.09431 15.67969)" id="Shape" fill="#008E70" stroke="none" />
      <path d="M0 5.75002L0 0.0885755L0.863583 0.0885755C1.02876 0.0776773 1.17912 0.180385 1.22341 0.334377L1.32028 0.783232C1.43546 0.666593 1.56044 0.559357 1.69395 0.462621C1.82351 0.366767 1.96258 0.283536 2.10913 0.214148C2.2601 0.143581 2.41889 0.0898008 2.58244 0.0538427C2.76423 0.0155409 2.94998 -0.00238933 3.13602 0.000407553C3.42733 -0.00522305 3.71667 0.0475427 3.98577 0.155369C4.22422 0.255325 4.43617 0.406029 4.60577 0.596209C4.77626 0.798323 4.90414 1.03068 4.98221 1.28018C5.06883 1.56196 5.11174 1.85458 5.10953 2.1485L5.10953 5.75002L3.69791 5.75002L3.69791 2.1485C3.71673 1.86118 3.62836 1.57684 3.44879 1.34697C3.25894 1.14706 2.98433 1.04261 2.70423 1.06377C2.46617 1.06223 2.23137 1.11728 2.02056 1.22407C1.79504 1.33603 1.59023 1.48318 1.41439 1.65957L1.41439 5.75002L0 5.75002Z" transform="translate(96.59945 15.67478)" id="Path" fill="#008E70" stroke="none" />
      <path d="M0 5.75007L0 0.0886195L0.863583 0.0886195C1.02876 0.0777213 1.17912 0.180429 1.22341 0.334421L1.32029 0.783276C1.43674 0.667921 1.56162 0.560776 1.69395 0.462665C1.82487 0.367352 1.96481 0.284159 2.1119 0.214192C2.26199 0.143814 2.41984 0.0900379 2.58244 0.0538867C2.76425 0.0157251 2.94999 -0.0022035 3.13602 0.000451539C3.42735 -0.00549142 3.71676 0.0472864 3.98577 0.155413C4.22466 0.254633 4.43677 0.405451 4.60577 0.596253C4.77764 0.795891 4.90655 1.02659 4.98498 1.27488C5.07292 1.55638 5.11585 1.84919 5.1123 2.1432L5.1123 5.75007L3.70067 5.75007L3.70067 2.14854C3.71883 1.86171 3.6316 1.57788 3.45433 1.34702C3.26314 1.14735 2.98786 1.04302 2.707 1.06381C2.46897 1.0626 2.23426 1.11764 2.02333 1.22412C1.79869 1.33743 1.59409 1.48442 1.41716 1.65961L1.41716 5.75007L0 5.75007Z" transform="translate(103.0874 15.67474)" id="Path" fill="#008E70" stroke="none" />
      <path d="M1.79926 0.857692C1.80046 0.972143 1.77492 1.08538 1.72453 1.18899C1.67667 1.28899 1.61004 1.37958 1.52801 1.45617C1.44315 1.53436 1.3448 1.59766 1.23738 1.64319C1.12526 1.68862 1.00468 1.71135 0.883089 1.70998C0.764242 1.71079 0.646487 1.68805 0.537102 1.64319C0.434564 1.59638 0.340978 1.53314 0.260313 1.45617C0.180861 1.37922 0.117024 1.2886 0.0720964 1.18899C0.0225693 1.0852 -0.00203119 0.971947 0.000131154 0.857692C-0.00178594 0.740877 0.0227758 0.625069 0.0720964 0.518379C0.117844 0.419208 0.181585 0.328727 0.260313 0.251204C0.341797 0.175893 0.435241 0.113656 0.537102 0.0668524C0.646487 0.0219872 0.764242 -0.000745807 0.883089 5.85417e-05C1.00468 -0.00131277 1.12526 0.021421 1.23738 0.0668524C1.34413 0.112398 1.44234 0.174691 1.52801 0.251204C1.60934 0.328367 1.67587 0.418822 1.72453 0.518379C1.7748 0.624862 1.80031 0.740678 1.79926 0.857692L1.79926 0.857692ZM1.58613 2.50349L1.58613 8.16494L0.177276 8.16494L0.177276 2.50349L1.58613 2.50349Z" transform="translate(109.4977 13.25986)" id="Shape" fill="#008E70" stroke="none" />
      <path d="M3.99407 1.19478C3.96465 1.24557 3.92284 1.28867 3.87228 1.32035C3.82395 1.34558 3.76939 1.35759 3.71451 1.35509C3.63719 1.35323 3.56138 1.33402 3.49308 1.29898L3.21629 1.17608C3.10286 1.12574 2.98528 1.08463 2.86477 1.05318C2.71334 1.0131 2.55675 0.994208 2.39976 0.99707C2.16769 0.984034 1.9375 1.04404 1.74377 1.16806C1.59145 1.26873 1.50114 1.43607 1.50296 1.61425C1.50038 1.72809 1.5441 1.83839 1.62475 1.9215C1.71982 2.01135 1.83033 2.08458 1.95136 2.13791C2.0992 2.2067 2.25293 2.26302 2.41083 2.30623C2.58244 2.35699 2.75682 2.41043 2.93673 2.46921C3.11664 2.52799 3.29102 2.59478 3.46263 2.66959C3.62968 2.74228 3.78454 2.83863 3.9221 2.95547C4.05734 3.07254 4.16738 3.21416 4.24594 3.37226C4.33343 3.55549 4.37605 3.7557 4.3705 3.95738C4.37292 4.21612 4.32016 4.47259 4.2155 4.71081C4.11377 4.93982 3.95951 5.14354 3.76433 5.30661C3.55092 5.48264 3.30351 5.61612 3.03638 5.69936C2.71241 5.7981 2.3741 5.84591 2.0344 5.84096C1.83567 5.84078 1.63739 5.82289 1.44207 5.78753C1.2535 5.75406 1.06828 5.7049 0.888493 5.64058C0.718832 5.5816 0.554891 5.50829 0.398576 5.4215C0.257026 5.34517 0.123534 5.25569 0 5.15432L0.326611 4.63066C0.363188 4.57129 0.414569 4.52169 0.476077 4.48638C0.541927 4.45084 0.616566 4.43329 0.691973 4.43562C0.780336 4.43688 0.866592 4.46186 0.941083 4.50776C1.01858 4.55585 1.10992 4.60661 1.21787 4.66272C1.33377 4.72458 1.45511 4.77644 1.58047 4.81768C1.7512 4.87039 1.92995 4.89478 2.10913 4.88982C2.25452 4.89327 2.3995 4.8734 2.53816 4.83104C2.64711 4.79952 2.74865 4.74779 2.83709 4.67875C2.91185 4.62132 2.97079 4.54699 3.0087 4.46234C3.04541 4.37782 3.06333 4.28679 3.06129 4.19516C3.06572 4.07542 3.02209 3.95865 2.9395 3.86921C2.84605 3.77679 2.7352 3.70244 2.61289 3.65012C2.46428 3.58091 2.30959 3.52458 2.15065 3.4818C1.97904 3.43104 1.79913 3.3776 1.61922 3.31883C1.43797 3.25953 1.26052 3.18994 1.08778 3.11043C0.918772 3.03406 0.762884 2.93314 0.625543 2.81119C0.487153 2.6848 0.376136 2.53314 0.298932 2.36501C0.213265 2.16158 0.171813 1.94332 0.177145 1.72379C0.177336 1.49657 0.226345 1.27187 0.321075 1.06386C0.416767 0.852263 0.560558 0.664157 0.741795 0.513483C0.944423 0.347111 1.17845 0.220101 1.431 0.139437C1.73987 0.0415029 2.06364 -0.00546573 2.38869 0.000505486C2.76712 -0.00463751 3.14303 0.060676 3.49585 0.192872C3.80459 0.306377 4.08685 0.478028 4.32621 0.697834L3.99407 1.19478Z" transform="translate(112.1633 15.67469)" id="Path" fill="#008E70" stroke="none" />
      <path d="M5.20641 0L5.20641 1.18092L1.54725 1.18092L1.54725 3.54008L4.63622 3.54008L4.63622 4.72366L1.54725 4.72366L1.54725 7.97252L0 7.97252L0 0L5.20641 0Z" transform="translate(84.24081 26.68283)" id="Path" fill="#008E70" stroke="none" />
      <path d="M2.82111 0.000252192C3.16865 -0.00375612 3.51397 0.0542131 3.8397 0.171245C4.14221 0.278496 4.41635 0.449126 4.64239 0.670863C4.87567 0.898182 5.0551 1.17165 5.16828 1.47239C5.29867 1.82088 5.36244 2.18932 5.3565 2.55979C5.35906 2.64906 5.35443 2.73839 5.34266 2.82697C5.33652 2.88328 5.31863 2.93781 5.29007 2.98728C5.26806 3.0254 5.23275 3.05475 5.19043 3.0701C5.13986 3.08758 5.08634 3.09573 5.03266 3.09415L1.40949 3.09415C1.40758 3.56333 1.58047 4.01754 1.89664 4.37392C2.19244 4.6503 2.59242 4.79797 3.00379 4.7827C3.20417 4.78617 3.40393 4.76004 3.59612 4.70521C3.74563 4.65993 3.89098 4.60274 4.03068 4.53422C4.15247 4.47277 4.26318 4.41399 4.35452 4.36323C4.43808 4.31427 4.53358 4.28753 4.63131 4.28575C4.68312 4.28432 4.73448 4.29533 4.78078 4.31781C4.82297 4.34158 4.85969 4.3734 4.88873 4.41132L5.30114 4.90827C5.14971 5.08056 4.97245 5.23005 4.77524 5.35178C4.58494 5.4704 4.38047 5.56639 4.16631 5.63766C3.95724 5.70938 3.74115 5.76041 3.52139 5.78995C3.31052 5.8192 3.09781 5.83437 2.88477 5.83537C2.49602 5.83966 2.10996 5.77257 1.74717 5.63766C1.40224 5.51285 1.09028 5.31575 0.833765 5.06056C0.56507 4.78791 0.356913 4.46516 0.222061 4.11208C0.0672783 3.6921 -0.00773368 3.24861 0.000629645 2.80292C-0.00242244 2.43134 0.0631885 2.0622 0.194382 1.71285C0.316427 1.38479 0.504572 1.08332 0.747961 0.825825C0.996855 0.569029 1.29853 0.365193 1.63369 0.227351C2.00869 0.0723476 2.41321 -0.00501739 2.82111 0.000252192L2.82111 0.000252192ZM2.84879 0.975443C2.49273 0.955974 2.14385 1.07756 1.8828 1.31208C1.63307 1.57598 1.47782 1.91036 1.43993 2.2659L4.08881 2.2659C4.09001 2.09669 4.06482 1.92826 4.01407 1.76628C3.9677 1.61586 3.89052 1.47594 3.78711 1.35483C3.67954 1.2397 3.54732 1.14853 3.3996 1.08766C3.22612 1.01355 3.0385 0.97533 2.84879 0.975443L2.84879 0.975443Z" transform="translate(89.80918 28.91082)" id="Shape" fill="#008E70" stroke="none" />
      <path d="M4.52887 8.20496C4.36257 8.21665 4.21129 8.11219 4.16904 7.95649L4.05556 7.42214C3.93706 7.55086 3.80843 7.67056 3.67082 7.78015C3.53781 7.88335 3.39403 7.97289 3.2418 8.04733C3.08352 8.12554 2.91631 8.18562 2.74358 8.22634C2.55603 8.27026 2.36361 8.29179 2.17062 8.29046C1.86528 8.2944 1.56342 8.22752 1.29043 8.09542C1.01894 7.96341 0.782985 7.77224 0.601229 7.53702C0.395258 7.2647 0.244095 6.95747 0.155598 6.6313C0.0458982 6.22859 -0.00625196 5.81329 0.000596501 5.39695C-0.00291117 5.0006 0.0558833 4.60604 0.174974 4.22672C0.283877 3.88481 0.458532 3.56576 0.689802 3.28626C0.904884 3.02647 1.17595 2.81496 1.48419 2.66641C1.80766 2.51574 2.16302 2.43982 2.52215 2.44466C2.80674 2.43782 3.08964 2.4888 3.35251 2.59427C3.58256 2.6944 3.79319 2.83175 3.97529 3.00038L3.97529 0L5.39522 0L5.39522 8.19427L4.52887 8.20496ZM2.64947 7.21374C2.9103 7.22246 3.16866 7.16242 3.3968 7.04008C3.62162 6.90738 3.81953 6.73627 3.98083 6.53511L3.98083 3.99962C3.84191 3.82914 3.66246 3.6935 3.45769 3.6042C3.26497 3.52618 3.05773 3.48708 2.84876 3.48931C2.64951 3.48595 2.45196 3.52518 2.27027 3.6042C2.09443 3.68177 1.9427 3.80244 1.83017 3.9542C1.69906 4.13376 1.60508 4.33606 1.55338 4.55C1.48326 4.82889 1.4507 5.11535 1.45651 5.40229C1.45159 5.68405 1.47945 5.96546 1.53954 6.24122C1.582 6.44132 1.66171 6.63233 1.77482 6.80496C1.86787 6.94081 1.99819 7.04903 2.15125 7.11756C2.30842 7.18323 2.47822 7.21601 2.64947 7.21374L2.64947 7.21374Z" transform="translate(95.90965 26.45038)" id="Shape" fill="#008E70" stroke="none" />
      <path d="M2.82111 0.000672035C3.16955 -0.00335943 3.51578 0.0546054 3.84246 0.171664C4.14379 0.27966 4.41686 0.450217 4.64239 0.671283C4.87567 0.898602 5.0551 1.17207 5.16828 1.47281C5.30001 1.82096 5.36382 2.18964 5.3565 2.56021C5.36365 2.64914 5.36365 2.73846 5.3565 2.82739C5.35246 2.88374 5.33544 2.93851 5.30668 2.98769C5.28334 3.02475 5.24846 3.05374 5.20704 3.07052C5.15546 3.08779 5.10107 3.09593 5.0465 3.09457L1.40949 3.09457C1.40758 3.56375 1.58047 4.01796 1.89664 4.37434C2.19244 4.65072 2.59242 4.79839 3.00379 4.78311C3.20417 4.78659 3.40393 4.76046 3.59612 4.70563C3.74563 4.66035 3.89098 4.60316 4.03068 4.53464C4.15247 4.47319 4.26318 4.41441 4.35452 4.36365C4.43808 4.31469 4.53358 4.28795 4.63131 4.28617C4.68312 4.28474 4.73448 4.29575 4.78078 4.31823C4.82297 4.342 4.85969 4.37382 4.88873 4.41174L5.30114 4.90869C5.14971 5.08098 4.97245 5.23047 4.77524 5.3522C4.58494 5.47082 4.38047 5.56681 4.16631 5.63808C3.95724 5.7098 3.74115 5.76083 3.52139 5.79037C3.31052 5.81962 3.09781 5.83479 2.88477 5.83579C2.49603 5.83989 2.11001 5.7728 1.74717 5.63808C1.40266 5.51248 1.09087 5.31549 0.833765 5.06098C0.56507 4.78833 0.356913 4.46558 0.222061 4.1125C0.0672783 3.69252 -0.00773368 3.24903 0.000629645 2.80334C-0.00242244 2.43176 0.0631885 2.06262 0.194382 1.71327C0.316427 1.38521 0.504572 1.08374 0.747961 0.826245C0.999813 0.562739 1.30631 0.353365 1.64753 0.211741C2.01947 0.0640521 2.41903 -0.00780841 2.82111 0.000672035L2.82111 0.000672035ZM2.85156 0.975863C2.49541 0.955764 2.14628 1.07743 1.88556 1.3125C1.63383 1.5754 1.47743 1.91016 1.43993 2.26632L4.08881 2.26632C4.09001 2.09711 4.06482 1.92868 4.01407 1.7667C3.96886 1.61582 3.89156 1.47569 3.78711 1.35525C3.67954 1.24012 3.54732 1.14895 3.3996 1.08808C3.22703 1.01419 3.04035 0.975964 2.85156 0.975863L2.85156 0.975863Z" transform="translate(102.4252 28.9104)" id="Shape" fill="#008E70" stroke="none" />
      <path d="M0 5.75871L0 0.102604L0.830368 0.102604C0.938304 0.0910455 1.04683 0.118664 1.13484 0.180085C1.20194 0.254752 1.24181 0.348613 1.24832 0.447261L1.33413 1.12856C1.5193 0.808216 1.76975 0.527382 2.07039 0.302986C2.34343 0.10355 2.67739 -0.00265076 3.01977 0.00107757C3.27465 -0.00948569 3.52648 0.0578308 3.73943 0.193444L3.55674 1.21138C3.55134 1.26602 3.52463 1.31664 3.48201 1.35299C3.43677 1.38361 3.38218 1.39867 3.32701 1.39573C3.24802 1.39233 3.16984 1.37885 3.09451 1.35566C2.96456 1.32816 2.8317 1.3156 2.6987 1.31825C2.4277 1.31111 2.16223 1.39307 1.94583 1.5507C1.71385 1.73481 1.53151 1.9704 1.41439 2.23734L1.41439 5.76138L0 5.75871Z" transform="translate(108.9304 28.89663)" id="Path" fill="#008E70" stroke="none" />
      <path d="M4.88299 5.75306L4.24914 5.75306C4.14145 5.75869 4.034 5.7385 3.93637 5.69429C3.84871 5.64264 3.78672 5.55868 3.76476 5.46184L3.63744 5.05841C3.49904 5.17901 3.35398 5.29228 3.20288 5.39772C3.06376 5.49241 2.91544 5.57384 2.76001 5.64085C2.60429 5.70903 2.44077 5.75925 2.27286 5.79047C2.08513 5.82637 1.89405 5.84338 1.70268 5.84123C1.47011 5.84327 1.23861 5.81083 1.01624 5.74505C0.81805 5.68545 0.635088 5.58622 0.47927 5.45383C0.325505 5.32161 0.205242 5.15708 0.127747 4.97291C0.0385093 4.76006 -0.00481467 4.53187 0.000424301 4.3023C0.00319449 4.08053 0.0631226 3.86292 0.174802 3.6691C0.31584 3.4366 0.515874 3.2426 0.756059 3.10535C1.09023 2.91111 1.45477 2.77036 1.83554 2.68856C2.38016 2.56885 2.9378 2.51323 3.49627 2.52291L3.49627 2.18894C3.52134 1.88691 3.43291 1.58626 3.24716 1.342C3.06058 1.1521 2.79501 1.05389 2.52474 1.07482C2.33157 1.07036 2.13895 1.09654 1.95456 1.1523C1.81613 1.19745 1.68263 1.25562 1.55598 1.32597C1.44526 1.39009 1.34285 1.44887 1.24598 1.49963C1.14953 1.55142 1.0408 1.57812 0.930436 1.57711C0.84331 1.57905 0.757871 1.55374 0.686862 1.50497C0.619061 1.45835 0.562426 1.39822 0.520788 1.32864L0.263374 0.893141C0.925767 0.302005 1.79998 -0.0179114 2.70189 0.000774842C3.01523 -0.00445619 3.32656 0.0500184 3.61806 0.16108C3.87726 0.263036 4.1105 0.41799 4.30173 0.615279C4.49259 0.814483 4.63783 1.05026 4.72798 1.30726C4.8272 1.5912 4.87587 1.88931 4.87192 2.18894L4.88299 5.75306ZM2.14277 4.90345C2.2766 4.90396 2.41013 4.89143 2.54135 4.86604C2.66121 4.84189 2.77745 4.80329 2.88734 4.75116C2.99858 4.69889 3.10426 4.63625 3.20288 4.56413C3.3107 4.48204 3.41244 4.39277 3.50734 4.29696L3.50734 3.34848C3.16248 3.34295 2.81781 3.36799 2.47769 3.42329C2.2479 3.46034 2.02381 3.52496 1.81063 3.61566C1.66929 3.67278 1.54611 3.76495 1.45357 3.88284C1.38492 3.98359 1.34835 4.10155 1.34839 4.22215C1.3284 4.41837 1.41026 4.61143 1.56705 4.7378C1.73559 4.85119 1.93743 4.90926 2.14277 4.90345Z" transform="translate(113.14 28.90228)" id="Shape" fill="#008E70" stroke="none" />
      <path d="M2.45629 7.45989C2.02255 7.48678 1.59726 7.33538 1.28547 7.0431C0.99804 6.72686 0.850911 6.31424 0.875823 5.89424L0.875823 2.74424L0.280726 2.74424C0.208325 2.7468 0.137769 2.72186 0.0842056 2.67478C0.0240135 2.61849 -0.00651988 2.53891 0.00116886 2.45836L0.00116886 1.92401L0.942252 1.77439L1.24118 0.230119C1.25281 0.163149 1.29042 0.102965 1.34636 0.0617983C1.40607 0.0186657 1.47947 -0.00306095 1.55396 0.000347901L2.28468 0.000347901L2.28468 1.77974L3.82916 1.77974L3.82916 2.74958L2.28468 2.74958L2.28468 5.81676C2.27616 5.96657 2.32546 6.11412 2.42307 6.23088C2.51611 6.32995 2.65005 6.38382 2.78844 6.37783C2.86256 6.38068 2.93661 6.37073 3.0071 6.34844C3.06002 6.33 3.11177 6.30859 3.1621 6.28432L3.27835 6.22287C3.30952 6.20271 3.34602 6.19158 3.38353 6.19081C3.42051 6.18957 3.45676 6.20092 3.48595 6.22287C3.51854 6.24838 3.5474 6.27804 3.57175 6.31103L3.99247 6.97363C3.78396 7.14194 3.5432 7.26904 3.28389 7.34768C3.01613 7.42807 2.73663 7.46596 2.45629 7.45989Z" transform="translate(118.8798 27.27293)" id="Path" fill="#008E70" stroke="none" />
      <path d="M1.78816 0.863016C1.7888 0.977411 1.76328 1.09053 1.71343 1.19431C1.66419 1.29354 1.59772 1.3839 1.51691 1.46149C1.43697 1.53862 1.34319 1.60108 1.24012 1.64584C1.12811 1.6919 1.00758 1.71553 0.885826 1.71531C0.766761 1.7155 0.64895 1.69184 0.539839 1.64584C0.436488 1.60156 0.342615 1.53904 0.26305 1.46149C0.183098 1.38437 0.118378 1.29383 0.0720652 1.19431C0.0230734 1.09035 -0.00150138 0.977219 0.000100031 0.863016C-0.00177671 0.745342 0.0227746 0.628672 0.0720652 0.521031C0.116911 0.420719 0.18181 0.329928 0.26305 0.253856C0.343214 0.176303 0.43691 0.112994 0.539839 0.0668328C0.649129 0.0216727 0.766948 -0.00107273 0.885826 3.88636e-05C1.00738 -0.00103256 1.12791 0.0216895 1.24012 0.0668328C1.34276 0.113465 1.43638 0.17672 1.51691 0.253856C1.59903 0.330361 1.66568 0.420965 1.71343 0.521031C1.76358 0.628493 1.78908 0.745154 1.78816 0.863016L1.78816 0.863016ZM1.5778 2.51149L1.5778 8.1676L0.166174 8.1676L0.166174 2.51149L1.5778 2.51149Z" transform="translate(123.7579 26.48775)" id="Shape" fill="#008E70" stroke="none" />
      <path d="M2.90622 0.000358331C3.31272 -0.00562162 3.71667 0.0632942 4.09641 0.203412C4.44007 0.330369 4.75085 0.528235 5.00705 0.783183C5.26666 1.04433 5.46574 1.35581 5.59107 1.69692C5.86408 2.48228 5.86408 3.33218 5.59107 4.11753C5.46447 4.46044 5.26561 4.77429 5.00705 5.03929C4.75249 5.29678 4.44129 5.49582 4.09641 5.62173C3.32744 5.89602 2.48223 5.89602 1.71326 5.62173C1.36708 5.49523 1.0542 5.29633 0.797084 5.03929C0.535885 4.77526 0.335031 4.46123 0.207523 4.11753C-0.0691744 3.33277 -0.0691744 2.48169 0.207523 1.69692C0.333789 1.35501 0.53487 1.04336 0.797084 0.783183C1.05665 0.531601 1.36905 0.336638 1.71326 0.211427C2.09348 0.0688063 2.49831 -0.00281881 2.90622 0.000358331L2.90622 0.000358331ZM2.90622 4.78013C3.32741 4.8103 3.73546 4.63099 3.98846 4.30456C4.2514 3.88758 4.37419 3.40227 4.33999 2.91524C4.37264 2.42666 4.25 1.94009 3.98846 1.52059C3.71457 1.21591 3.31721 1.04092 2.8993 1.04092C2.48139 1.04092 2.08403 1.21591 1.81013 1.52059C1.54669 1.93843 1.42298 2.42446 1.45584 2.91257C1.42213 3.39906 1.54594 3.88364 1.81013 4.29921C2.06698 4.62903 2.4799 4.81021 2.90622 4.78013L2.90622 4.78013Z" transform="translate(126.5232 28.91071)" id="Shape" fill="#008E70" stroke="none" />
      <path d="M0 5.74468L0 0.0885732L0.860814 0.0885732C1.0268 0.0779657 1.17744 0.181988 1.22064 0.337047L1.31752 0.78323C1.43397 0.667875 1.55885 0.56073 1.69118 0.462619C1.8221 0.367305 1.96204 0.284113 2.10913 0.214146C2.25922 0.143768 2.41707 0.0899916 2.57967 0.0538404C2.76172 0.0171632 2.94729 -0.000748955 3.13325 0.000405275C3.42545 -0.00520841 3.71569 0.0475497 3.98576 0.155367C4.22454 0.256014 4.43653 0.40766 4.60577 0.598879C4.7766 0.799772 4.90453 1.03132 4.9822 1.28018C5.07038 1.56072 5.11332 1.85268 5.10953 2.14583L5.10953 5.74735L3.70067 5.74735L3.70067 2.14315C3.7195 1.85583 3.63113 1.5715 3.45156 1.34163C3.26099 1.14272 2.98691 1.03847 2.707 1.05842C2.46809 1.05721 2.23247 1.11223 2.02056 1.21873C1.7965 1.33294 1.59204 1.47983 1.41439 1.65422L1.41439 5.74468L0 5.74468Z" transform="translate(133.4124 28.91066)" id="Path" fill="#008E70" stroke="none" />
    </g>
  </g>
</svg>