<?xml version="1.0" encoding="utf-8"?>
<svg width="24px" height="24px" viewBox="0 0 24 24" version="1.1" xmlns:xlink="http://www.w3.org/1999/xlink" xmlns="http://www.w3.org/2000/svg">
  <desc>Created with Lunacy</desc>
  <defs>
    <path d="M8.28209 3.53418C8.28209 3.81112 8.31314 4.08073 8.3725 4.33949L8.3725 4.33949C5.47389 4.19227 2.90379 2.78552 1.18394 0.646902L1.18394 0.646902C0.883731 1.16897 0.71154 1.77566 0.71154 2.42361L0.71154 2.42361C0.71154 3.64992 1.32749 4.73147 2.26299 5.36544L2.26299 5.36544C1.69155 5.3469 1.15358 5.18815 0.683589 4.92345L0.683589 4.92345C0.683244 4.93778 0.683244 4.95282 0.683244 4.96785L0.683244 4.96785C0.683244 6.67987 1.88548 8.1083 3.48144 8.43315L3.48144 8.43315C3.18847 8.51392 2.88032 8.55728 2.56216 8.55728L2.56216 8.55728C2.33718 8.55728 2.11875 8.53525 1.90584 8.49364L1.90584 8.49364C2.3496 9.89759 3.63776 10.9193 5.16367 10.9477L5.16367 10.9477C3.97006 11.896 2.46623 12.4611 0.83197 12.4611L0.83197 12.4611C0.550736 12.4611 0.273297 12.4443 0 12.4118L0 12.4118C1.54385 13.4146 3.37688 14 5.34655 14L5.34655 14C11.7615 14 15.2695 8.61428 15.2695 3.944L15.2695 3.944C15.2695 3.79119 15.2664 3.63838 15.2601 3.48662L15.2601 3.48662C15.941 2.98869 16.5324 2.36591 17 1.65677L17 1.65677C16.3744 1.93861 15.7022 2.12848 14.9965 2.2138L14.9965 2.2138C15.7167 1.77636 16.2695 1.084 16.53 0.258411L16.53 0.258411C15.8561 0.663336 15.11 0.957764 14.3153 1.11617L14.3153 1.11617C13.6797 0.429752 12.7732 0 11.7697 0L11.7697 0C9.84389 0 8.28209 1.58264 8.28209 3.53418L8.28209 3.53418Z" id="path_1" />
    <clipPath id="mask_1">
      <use xlink:href="#path_1" />
    </clipPath>
  </defs>
  <g id="icons/twitter-dark">
    <g id="Group-3" transform="translate(4 5)">
      <path d="M8.28209 3.53418C8.28209 3.81112 8.31314 4.08073 8.3725 4.33949L8.3725 4.33949C5.47389 4.19227 2.90379 2.78552 1.18394 0.646902L1.18394 0.646902C0.883731 1.16897 0.71154 1.77566 0.71154 2.42361L0.71154 2.42361C0.71154 3.64992 1.32749 4.73147 2.26299 5.36544L2.26299 5.36544C1.69155 5.3469 1.15358 5.18815 0.683589 4.92345L0.683589 4.92345C0.683244 4.93778 0.683244 4.95282 0.683244 4.96785L0.683244 4.96785C0.683244 6.67987 1.88548 8.1083 3.48144 8.43315L3.48144 8.43315C3.18847 8.51392 2.88032 8.55728 2.56216 8.55728L2.56216 8.55728C2.33718 8.55728 2.11875 8.53525 1.90584 8.49364L1.90584 8.49364C2.3496 9.89759 3.63776 10.9193 5.16367 10.9477L5.16367 10.9477C3.97006 11.896 2.46623 12.4611 0.83197 12.4611L0.83197 12.4611C0.550736 12.4611 0.273297 12.4443 0 12.4118L0 12.4118C1.54385 13.4146 3.37688 14 5.34655 14L5.34655 14C11.7615 14 15.2695 8.61428 15.2695 3.944L15.2695 3.944C15.2695 3.79119 15.2664 3.63838 15.2601 3.48662L15.2601 3.48662C15.941 2.98869 16.5324 2.36591 17 1.65677L17 1.65677C16.3744 1.93861 15.7022 2.12848 14.9965 2.2138L14.9965 2.2138C15.7167 1.77636 16.2695 1.084 16.53 0.258411L16.53 0.258411C15.8561 0.663336 15.11 0.957764 14.3153 1.11617L14.3153 1.11617C13.6797 0.429752 12.7732 0 11.7697 0L11.7697 0C9.84389 0 8.28209 1.58264 8.28209 3.53418L8.28209 3.53418Z" id="Clip-2" fill="none" stroke="none" />
      <g clip-path="url(#mask_1)">
        <path d="M0 16L19 16L19 0L0 0L0 16Z" transform="translate(-1 -1)" id="Fill-1" fill="#FFFFFF" stroke="none" />
      </g>
    </g>
  </g>
</svg>