<?xml version="1.0" encoding="utf-8"?>
<svg width="24px" height="24px" viewBox="0 0 24 24" version="1.1" xmlns:xlink="http://www.w3.org/1999/xlink" xmlns="http://www.w3.org/2000/svg">
  <desc>Created with Lunacy</desc>
  <g id="icons/twitter-dark">
    <path d="M7.2 9.64288L7.2 3.85712L11.8764 6.75L7.2 9.64288ZM17.624 2.10803C17.4168 1.2784 16.807 0.624835 16.0325 0.403063C14.6288 0 8.99993 0 8.99993 0C8.99993 0 3.37123 0 1.9675 0.403063C1.19304 0.624835 0.583183 1.2784 0.376195 2.10803C0 3.61201 0 6.75 0 6.75C0 6.75 0 9.88799 0.376195 11.392C0.583183 12.2216 1.19304 12.8752 1.9675 13.0969C3.37123 13.5 8.99993 13.5 8.99993 13.5C8.99993 13.5 14.6288 13.5 16.0325 13.0969C16.807 12.8752 17.4168 12.2216 17.624 11.392C18 9.88799 18 6.75 18 6.75C18 6.75 18 3.61201 17.624 2.10803L17.624 2.10803Z" transform="translate(3 5)" id="Fill-1" fill="#FFFFFF" stroke="none" />
  </g>
</svg>